<svg xmlns="http://www.w3.org/2000/svg" width="413.021" height="396.086" viewBox="0 0 413.021 396.086">
    <g id="Сгруппировать_56" data-name="Сгруппировать 56" transform="translate(-99.423 -775.377)">
        <g id="Сгруппировать_41" data-name="Сгруппировать 41" transform="translate(204.646 899.103)">
            <g id="Сгруппировать_34" data-name="Сгруппировать 34">
                <path id="Контур_27" data-name="Контур 27" d="M235.993,1018.088A99.49,99.49,0,1,1,335.371,918.6,99.545,99.545,0,0,1,235.993,1018.088Zm0-190.492a91,91,0,1,0,90.89,91A91.049,91.049,0,0,0,235.993,827.6Z" transform="translate(-136.615 -819.109)" fill="#f8f8f8"/>
            </g>
            <g id="Сгруппировать_35" data-name="Сгруппировать 35" transform="translate(95.134)">
                <path id="Контур_28" data-name="Контур 28" d="M174.485,1018.088a4.242,4.242,0,0,1-4.244-4.244V823.353a4.244,4.244,0,1,1,8.488,0v190.492A4.244,4.244,0,0,1,174.485,1018.088Z" transform="translate(-170.241 -819.109)" fill="#f8f8f8"/>
            </g>
            <g id="Сгруппировать_36" data-name="Сгруппировать 36" transform="translate(0 95.247)">
                <path id="Контур_29" data-name="Контур 29" d="M330.912,861.263H140.859a4.244,4.244,0,1,1,0-8.487H330.912a4.244,4.244,0,1,1,0,8.487Z" transform="translate(-136.615 -852.775)" fill="#f8f8f8"/>
            </g>
            <g id="Сгруппировать_37" data-name="Сгруппировать 37" transform="translate(95.131 0.023)">
                <path id="Контур_30" data-name="Контур 30" d="M174.489,1018.074a4.243,4.243,0,0,1-2.009-7.984c26.832-14.378,45.109-48.882,46.563-87.9,1.516-40.692-15.363-76.294-45.151-95.242a4.244,4.244,0,0,1,4.558-7.161c32.36,20.582,50.7,58.98,49.075,102.719-1.565,41.977-21.6,79.291-51.036,95.069A4.212,4.212,0,0,1,174.489,1018.074Z" transform="translate(-170.24 -819.117)" fill="#f8f8f8"/>
            </g>
            <g id="Сгруппировать_38" data-name="Сгруппировать 38" transform="translate(46.126 0.023)">
                <path id="Контур_31" data-name="Контур 31" d="M206.055,1018.074a4.22,4.22,0,0,1-2-.5c-29.438-15.779-49.471-53.092-51.036-95.069-1.632-43.739,16.715-82.137,49.075-102.719a4.243,4.243,0,1,1,4.555,7.161c-29.788,18.947-46.667,54.549-45.148,95.242,1.454,39.02,19.731,73.525,46.563,87.9a4.243,4.243,0,0,1-2.009,7.984Z" transform="translate(-152.919 -819.117)" fill="#f8f8f8"/>
            </g>
            <g id="Сгруппировать_39" data-name="Сгруппировать 39" transform="translate(27.365 28.398)">
                <path id="Контур_32" data-name="Контур 32" d="M217.036,857.015c-24.71,0-50.286-5.607-69.111-20.277a4.244,4.244,0,1,1,5.214-6.7c38.194,29.76,109.226,18.525,131.662,1.349a4.243,4.243,0,1,1,5.158,6.739C276.276,848.6,247.305,857.015,217.036,857.015Z" transform="translate(-146.287 -829.146)" fill="#f8f8f8"/>
            </g>
            <g id="Сгруппировать_40" data-name="Сгруппировать 40" transform="translate(27.365 142.285)">
                <path id="Контур_33" data-name="Контур 33" d="M287.381,896.669a4.24,4.24,0,0,1-2.614-.9c-22.254-17.417-93.162-29.429-131.662-.088a4.245,4.245,0,0,1-5.146-6.753c42.231-32.171,117.391-19.134,142.039.153a4.244,4.244,0,0,1-2.617,7.588Z" transform="translate(-146.287 -869.401)" fill="#f8f8f8"/>
            </g>
        </g>
        <g id="Сгруппировать_55" data-name="Сгруппировать 55" transform="translate(99.423 775.377)">
            <g id="Сгруппировать_52" data-name="Сгруппировать 52">
                <g id="Сгруппировать_43" data-name="Сгруппировать 43" transform="translate(70.486)">
                    <g id="Сгруппировать_42" data-name="Сгруппировать 42">
                        <path id="Контур_34" data-name="Контур 34" d="M148.218,863.851a11.583,11.583,0,0,1-5.876-1.6l-12.581-7.424a10.969,10.969,0,0,1-5.209-7.217,10.5,10.5,0,0,1,1.9-8.428c29.616-39.957,79.129-63.81,132.448-63.81,49.63,0,95.525,20.268,125.907,55.61A11.635,11.635,0,0,1,383.58,847.2L373.1,856.524a10.731,10.731,0,0,1-7.113,2.753,10.973,10.973,0,0,1-8.609-4.295c-22.15-28.062-58.855-44.817-98.187-44.817-41.411,0-79.217,18.175-101.124,48.614A12.152,12.152,0,0,1,148.218,863.851ZM258.9,783.865c-50.642,0-97.607,22.568-125.627,60.375a2.075,2.075,0,0,0-.4,1.686,2.445,2.445,0,0,0,1.2,1.6l12.584,7.424a3.572,3.572,0,0,0,4.515-1.117c23.5-32.654,63.88-52.15,108.015-52.15,41.906,0,81.1,17.962,104.849,48.045a2.256,2.256,0,0,0,3.418.455l10.491-9.328a3.193,3.193,0,0,0,.427-4.331C349.6,803.058,306.055,783.865,258.9,783.865Z" transform="translate(-124.337 -775.377)" fill="#f8f8f8"/>
                    </g>
                </g>
                <g id="Сгруппировать_46" data-name="Сгруппировать 46" transform="translate(0 194.724)">
                    <g id="Сгруппировать_44" data-name="Сгруппировать 44" transform="translate(27.061)">
                        <path id="Контур_35" data-name="Контур 35" d="M134.728,1007.657c-4.467,0-8.3-3.879-8.918-9.022L109.078,860.664c-.682-5.61,2.577-10.471,7.418-11.068l44.328-5.336a7.322,7.322,0,0,1,.934-.057c4.459,0,8.3,3.879,8.926,9.028L187.415,991.2c.682,5.618-2.583,10.479-7.432,11.067l-44.328,5.336A7.7,7.7,0,0,1,134.728,1007.657ZM117.775,857.994a2.591,2.591,0,0,0-.272,1.646l16.735,137.979a2.58,2.58,0,0,0,.651,1.528l43.833-5.276a2.6,2.6,0,0,0,.269-1.65L162.258,854.256a2.627,2.627,0,0,0-.656-1.542Z" transform="translate(-108.988 -844.204)" fill="#f8f8f8"/>
                    </g>
                    <g id="Сгруппировать_45" data-name="Сгруппировать 45" transform="translate(0 5.806)">
                        <path id="Контур_36" data-name="Контур 36" d="M150.532,1003.949c-.11,0-.223-.006-.337-.014-23.482-1.853-44.874-33.6-49.763-73.847-4.875-40.291,8.312-76.238,30.668-83.619a4.245,4.245,0,1,1,2.659,8.063c-18.288,6.037-29.228,38.777-24.9,74.535,4.337,35.718,22.789,64.89,42,66.409a4.243,4.243,0,0,1-.331,8.474Z" transform="translate(-99.423 -846.256)" fill="#f8f8f8"/>
                    </g>
                </g>
                <g id="Сгруппировать_49" data-name="Сгруппировать 49" transform="translate(307.443 194.724)">
                    <g id="Сгруппировать_47" data-name="Сгруппировать 47">
                        <path id="Контур_37" data-name="Контур 37" d="M260.868,1007.657h0a7.553,7.553,0,0,1-.942-.057l-44.313-5.333a8.232,8.232,0,0,1-6.086-4.142,11.074,11.074,0,0,1-1.347-6.929l16.729-137.962c.67-5.511,5.067-9.56,9.868-8.974l44.308,5.336c4.852.6,8.111,5.458,7.43,11.071L269.786,998.641C269.163,1003.781,265.33,1007.657,260.868,1007.657Zm-44-13.787,43.835,5.276a2.576,2.576,0,0,0,.654-1.525l16.729-137.979a2.582,2.582,0,0,0-.269-1.649l-43.824-5.279a2.626,2.626,0,0,0-.659,1.545L216.606,992.221A2.621,2.621,0,0,0,216.869,993.87Z" transform="translate(-208.092 -844.204)" fill="#f8f8f8"/>
                    </g>
                    <g id="Сгруппировать_48" data-name="Сгруппировать 48" transform="translate(50.228 5.805)">
                        <path id="Контур_38" data-name="Контур 38" d="M230.085,1003.949a4.243,4.243,0,0,1-.331-8.474c19.216-1.519,37.665-30.691,42-66.412,4.323-35.755-6.615-68.495-24.905-74.532a4.246,4.246,0,0,1,2.662-8.063c22.356,7.381,35.543,43.331,30.668,83.616-4.889,40.245-26.28,71.994-49.762,73.85C230.309,1003.943,230.2,1003.949,230.085,1003.949Z" transform="translate(-225.845 -846.256)" fill="#f8f8f8"/>
                    </g>
                </g>
                <g id="Сгруппировать_50" data-name="Сгруппировать 50" transform="translate(318.002 68.549)">
                    <path id="Контур_39" data-name="Контур 39" d="M250.055,936.116a4.177,4.177,0,0,1-1.9-.453,4.244,4.244,0,0,1-1.884-5.7c10-19.855,5.446-90.344-32.943-122.877a4.244,4.244,0,0,1,5.486-6.476c41.337,35.028,47.539,108.338,35.039,133.17A4.237,4.237,0,0,1,250.055,936.116Z" transform="translate(-211.824 -799.606)" fill="#f8f8f8"/>
                </g>
                <g id="Сгруппировать_51" data-name="Сгруппировать 51" transform="translate(41.069 74.612)">
                    <path id="Контур_40" data-name="Контур 40" d="M122.842,932.2a4.239,4.239,0,0,1-3.726-2.206c-10.949-20.014-6.736-92.495,34.256-127.237a4.246,4.246,0,1,1,5.489,6.479c-37.252,31.568-41.979,98.988-32.3,116.687a4.239,4.239,0,0,1-3.718,6.278Z" transform="translate(-113.939 -801.749)" fill="#f8f8f8"/>
                </g>
            </g>
            <g id="Сгруппировать_53" data-name="Сгруппировать 53" transform="translate(325.18 349.698)">
                <path id="Контур_41" data-name="Контур 41" d="M218.611,945.368a4.392,4.392,0,0,1-.605-.042,4.244,4.244,0,0,1-3.6-4.8l5.39-37.9a4.243,4.243,0,1,1,8.4,1.191l-5.39,37.9A4.244,4.244,0,0,1,218.611,945.368Z" transform="translate(-214.361 -898.981)" fill="#f8f8f8"/>
            </g>
            <g id="Сгруппировать_54" data-name="Сгруппировать 54" transform="translate(251.023 381.331)">
                <path id="Контур_42" data-name="Контур 42" d="M266.553,924.916c-.119,0-.241-.006-.362-.014l-74.156-6.272a4.245,4.245,0,0,1,.716-8.459l74.156,6.272a4.244,4.244,0,0,1-.354,8.473Z" transform="translate(-188.15 -910.162)" fill="#f8f8f8"/>
            </g>
        </g>
    </g>
</svg>