<svg xmlns="http://www.w3.org/2000/svg" width="419.964" height="280.467" viewBox="0 0 419.964 280.467">
    <g id="Сгруппировать_122" data-name="Сгруппировать 122" transform="translate(-744.427 -796.511)">
        <g id="Сгруппировать_98" data-name="Сгруппировать 98" transform="translate(744.427 796.511)">
            <g id="Сгруппировать_79" data-name="Сгруппировать 79" transform="translate(188.242 30.67)">
                <path id="Контур_60" data-name="Контур 60" d="M825.685,1056.68a3.639,3.639,0,0,1-3.638-3.638V812.8a3.638,3.638,0,0,1,7.275,0v240.246A3.639,3.639,0,0,1,825.685,1056.68Z" transform="translate(-822.047 -809.158)" fill="#f8f8f8"/>
            </g>
            <g id="Сгруппировать_87" data-name="Сгруппировать 87">
                <g id="Сгруппировать_80" data-name="Сгруппировать 80" transform="translate(24.503)">
                    <path id="Контур_61" data-name="Контур 61" d="M921.91,835.107a3.633,3.633,0,0,1-3-1.581c-21.565-31.423-93.815-30.239-141.627-29.47-6.919.114-13.36.218-19.113.218a3.638,3.638,0,0,1,0-7.276c5.719,0,12.116-.1,18.994-.216,49.376-.81,123.965-2.018,147.743,32.628a3.634,3.634,0,0,1-.941,5.056A3.592,3.592,0,0,1,921.91,835.107Z" transform="translate(-754.53 -796.511)" fill="#f8f8f8"/>
                </g>
                <g id="Сгруппировать_81" data-name="Сгруппировать 81" transform="translate(24.122 241.728)">
                    <path id="Контур_62" data-name="Контур 62" d="M921.748,934.925a3.637,3.637,0,0,1-3.1-1.731c-19.523-31.726-91.991-30.324-139.959-29.381-7.46.146-14.5.281-20.677.281a3.638,3.638,0,0,1,0-7.276c6.1,0,13.113-.136,20.536-.281,49.624-.96,124.593-2.428,146.3,32.844a3.636,3.636,0,0,1-3.094,5.544Z" transform="translate(-754.373 -896.186)" fill="#f8f8f8"/>
                </g>
                <g id="Сгруппировать_82" data-name="Сгруппировать 82" transform="translate(24.122 0.487)">
                    <path id="Контур_63" data-name="Контур 63" d="M758.011,1045.861h0a3.638,3.638,0,0,1-3.633-3.643l.381-241.874a3.638,3.638,0,0,1,3.638-3.633h0a3.638,3.638,0,0,1,3.633,3.643l-.381,241.874A3.638,3.638,0,0,1,758.011,1045.861Z" transform="translate(-754.373 -796.712)" fill="#f8f8f8"/>
                </g>
                <g id="Сгруппировать_83" data-name="Сгруппировать 83" transform="translate(0 0.487)">
                    <path id="Контур_64" data-name="Контур 64" d="M748.066,828.589a3.637,3.637,0,0,1-2.578-6.2l24.5-24.6a3.638,3.638,0,1,1,5.154,5.136l-24.5,24.6A3.627,3.627,0,0,1,748.066,828.589Z" transform="translate(-744.427 -796.712)" fill="#f8f8f8"/>
                </g>
                <g id="Сгруппировать_84" data-name="Сгруппировать 84" transform="translate(0.001 242.362)">
                    <path id="Контур_65" data-name="Контур 65" d="M748.065,928.509a3.638,3.638,0,0,1-2.607-6.175l24.121-24.788a3.638,3.638,0,0,1,5.214,5.073l-24.121,24.788A3.621,3.621,0,0,1,748.065,928.509Z" transform="translate(-744.427 -896.448)" fill="#f8f8f8"/>
                </g>
                <g id="Сгруппировать_85" data-name="Сгруппировать 85" transform="translate(0.001 25.088)">
                    <path id="Контур_66" data-name="Контур 66" d="M748.065,1056.192a3.639,3.639,0,0,1-3.638-3.638V810.494a3.638,3.638,0,1,1,7.275,0v242.061A3.639,3.639,0,0,1,748.065,1056.192Z" transform="translate(-744.427 -806.856)" fill="#f8f8f8"/>
                </g>
                <g id="Сгруппировать_86" data-name="Сгруппировать 86" transform="translate(0.002 267.148)">
                    <path id="Контур_67" data-name="Контур 67" d="M935.923,919.987c-.041,0-.083,0-.119,0l-187.856-6.044a3.637,3.637,0,0,1,.114-7.273c.039,0,.08,0,.119,0l187.853,6.043a3.637,3.637,0,0,1-.112,7.273Z" transform="translate(-744.427 -906.668)" fill="#f8f8f8"/>
                </g>
            </g>
            <g id="Сгруппировать_97" data-name="Сгруппировать 97" transform="translate(189.026 0.002)">
                <g id="Сгруппировать_88" data-name="Сгруппировать 88">
                    <path id="Контур_68" data-name="Контур 68" d="M826.005,835.106a3.638,3.638,0,0,1-3-5.7c23.774-34.644,98.377-33.433,147.746-32.628,6.875.112,13.273.216,18.991.216a3.638,3.638,0,0,1,0,7.276c-5.752,0-12.194-.1-19.11-.218-47.819-.771-120.063-1.955-141.632,29.47A3.625,3.625,0,0,1,826.005,835.106Z" transform="translate(-822.37 -796.512)" fill="#f8f8f8"/>
                </g>
                <g id="Сгруппировать_89" data-name="Сгруппировать 89" transform="translate(0.38 241.727)">
                    <path id="Контур_69" data-name="Контур 69" d="M826.163,934.925a3.636,3.636,0,0,1-3.094-5.544c21.708-35.272,96.7-33.8,146.3-32.844,7.426.146,14.435.281,20.536.281a3.638,3.638,0,0,1,0,7.276c-6.172,0-13.217-.136-20.675-.281-47.965-.941-120.441-2.348-139.966,29.381A3.637,3.637,0,0,1,826.163,934.925Z" transform="translate(-822.527 -896.187)" fill="#f8f8f8"/>
                </g>
                <g id="Сгруппировать_90" data-name="Сгруппировать 90" transform="translate(163.895 102.291)">
                    <path id="Контур_70" data-name="Контур 70" d="M893.807,986.035a3.638,3.638,0,0,1-3.638-3.633l-.218-140.068a3.638,3.638,0,0,1,3.633-3.643h0a3.638,3.638,0,0,1,3.638,3.635l.219,140.065a3.638,3.638,0,0,1-3.633,3.643Z" transform="translate(-889.951 -838.691)" fill="#f8f8f8"/>
                </g>
                <g id="Сгруппировать_91" data-name="Сгруппировать 91" transform="translate(163.853 73.177)">
                    <path id="Контур_71" data-name="Контур 71" d="M893.572,833.971a3.629,3.629,0,0,1-3.638-3.628v-.019a3.638,3.638,0,1,1,3.638,3.648Z" transform="translate(-889.934 -826.686)" fill="#f8f8f8"/>
                </g>
                <g id="Сгруппировать_92" data-name="Сгруппировать 92" transform="translate(163.735 0.492)">
                    <path id="Контур_72" data-name="Контур 72" d="M893.6,845.158h-3.638l-.08-44.8a3.637,3.637,0,0,1,3.63-3.645h.007a3.639,3.639,0,0,1,3.638,3.63l.08,44.786Z" transform="translate(-889.885 -796.715)" fill="#f8f8f8"/>
                </g>
                <g id="Сгруппировать_93" data-name="Сгруппировать 93" transform="translate(163.733 0.491)">
                    <path id="Контур_73" data-name="Контур 73" d="M916.594,827.142a3.629,3.629,0,0,1-2.575-1.072l-23.073-23.151a3.637,3.637,0,1,1,5.153-5.134l23.073,23.151a3.639,3.639,0,0,1-2.578,6.206Z" transform="translate(-889.884 -796.715)" fill="#f8f8f8"/>
                </g>
                <g id="Сгруппировать_94" data-name="Сгруппировать 94" transform="translate(164.121 242.36)">
                    <path id="Контур_74" data-name="Контур 74" d="M917.8,928.509a3.622,3.622,0,0,1-2.607-1.1L891.074,902.62a3.637,3.637,0,0,1,5.214-5.073l24.118,24.788a3.638,3.638,0,0,1-2.607,6.175Z" transform="translate(-890.044 -896.448)" fill="#f8f8f8"/>
                </g>
                <g id="Сгруппировать_95" data-name="Сгруппировать 95" transform="translate(188.241 79.359)">
                    <path id="Контур_75" data-name="Контур 75" d="M903.628,1024.3a3.639,3.639,0,0,1-3.638-3.638V832.873a3.638,3.638,0,0,1,7.276,0v187.788A3.639,3.639,0,0,1,903.628,1024.3Z" transform="translate(-899.99 -829.235)" fill="#f8f8f8"/>
                </g>
                <g id="Сгруппировать_96" data-name="Сгруппировать 96" transform="translate(0.381 267.146)">
                    <path id="Контур_76" data-name="Контур 76" d="M826.162,919.987a3.637,3.637,0,0,1-.114-7.273l187.858-6.043c.039,0,.08,0,.119,0a3.637,3.637,0,0,1,.114,7.273l-187.858,6.044C826.245,919.987,826.2,919.987,826.162,919.987Z" transform="translate(-822.527 -906.668)" fill="#f8f8f8"/>
                </g>
            </g>
        </g>
        <g id="Сгруппировать_99" data-name="Сгруппировать 99" transform="translate(803.056 913.049)">
            <path id="Контур_77" data-name="Контур 77" d="M873.066,862.357A3.648,3.648,0,0,1,871.5,862c-26.919-12.861-68.938-10.333-89.132-9.121-4.375.264-7.833.473-10.128.473a3.638,3.638,0,0,1,0-7.276c2.076,0,5.437-.2,9.693-.458,20.8-1.251,64.085-3.856,92.7,9.817a3.637,3.637,0,0,1-1.569,6.919Z" transform="translate(-768.602 -844.565)" fill="#f8f8f8"/>
        </g>
        <g id="Сгруппировать_100" data-name="Сгруппировать 100" transform="translate(800.003 872.565)">
            <path id="Контур_78" data-name="Контур 78" d="M871.807,845.664a3.617,3.617,0,0,1-1.567-.357c-26.919-12.858-68.938-10.333-89.132-9.118-4.375.262-7.833.47-10.127.47a3.638,3.638,0,0,1,0-7.275c2.076,0,5.437-.2,9.693-.456,20.8-1.254,64.087-3.854,92.7,9.815a3.639,3.639,0,0,1-1.569,6.922Z" transform="translate(-767.343 -827.872)" fill="#f8f8f8"/>
        </g>
        <g id="Сгруппировать_101" data-name="Сгруппировать 101" transform="translate(844.439 833.281)">
            <path id="Контур_79" data-name="Контур 79" d="M843.7,829.5a3.6,3.6,0,0,1-1.406-.286c-24.683-10.375-38.3-10.276-50.361-10.254l-2.626.01a3.638,3.638,0,0,1,0-7.276l2.592-.007c12.087-.063,27.164-.131,53.213,10.821A3.638,3.638,0,0,1,843.7,829.5Z" transform="translate(-785.666 -811.673)" fill="#f8f8f8"/>
        </g>
        <g id="Сгруппировать_102" data-name="Сгруппировать 102" transform="translate(803.056 957.076)">
            <path id="Контур_80" data-name="Контур 80" d="M873.066,880.51a3.62,3.62,0,0,1-1.567-.356c-26.917-12.861-68.938-10.334-89.125-9.116-4.38.264-7.841.473-10.135.473a3.638,3.638,0,0,1,0-7.276c2.076,0,5.44-.2,9.7-.461,20.8-1.251,64.083-3.854,92.7,9.815a3.639,3.639,0,0,1-1.569,6.921Z" transform="translate(-768.602 -862.719)" fill="#f8f8f8"/>
        </g>
        <g id="Сгруппировать_103" data-name="Сгруппировать 103" transform="translate(803.056 1000.21)">
            <path id="Контур_81" data-name="Контур 81" d="M873.066,898.3a3.616,3.616,0,0,1-1.567-.357c-26.917-12.853-68.938-10.331-89.13-9.116-4.375.262-7.836.471-10.13.471a3.638,3.638,0,0,1,0-7.276c2.076,0,5.44-.2,9.7-.458,20.8-1.251,64.087-3.851,92.7,9.814a3.639,3.639,0,0,1-1.569,6.922Z" transform="translate(-768.602 -880.505)" fill="#f8f8f8"/>
        </g>
        <g id="Сгруппировать_104" data-name="Сгруппировать 104" transform="translate(966.371 873.941)">
            <path id="Контур_82" data-name="Контур 82" d="M839.585,846.24a3.637,3.637,0,0,1-1.569-6.919c28.658-13.693,71.969-11.078,92.787-9.82l4.358.255a3.639,3.639,0,1,1-.4,7.266l-4.395-.26c-20.2-1.215-62.247-3.759-89.212,9.124A3.65,3.65,0,0,1,839.585,846.24Z" transform="translate(-835.944 -828.439)" fill="#f8f8f8"/>
        </g>
        <g id="Сгруппировать_105" data-name="Сгруппировать 105" transform="translate(963.721 915.852)">
            <path id="Контур_83" data-name="Контур 83" d="M838.491,863.428a3.637,3.637,0,0,1-1.569-6.919c13.763-6.572,32.742-10.2,56.414-10.787a3.7,3.7,0,0,1,3.728,3.548A3.643,3.643,0,0,1,893.516,853c-22.641.558-40.626,3.951-53.458,10.077A3.616,3.616,0,0,1,838.491,863.428Z" transform="translate(-834.851 -845.721)" fill="#f8f8f8"/>
        </g>
        <g id="Сгруппировать_106" data-name="Сгруппировать 106" transform="translate(966.574 835.561)">
            <path id="Контур_84" data-name="Контур 84" d="M839.669,830.4a3.637,3.637,0,0,1-1.569-6.919c28.617-13.668,71.9-11.069,92.7-9.817,4.256.255,7.617.456,9.693.456a3.638,3.638,0,0,1,0,7.276c-2.294,0-5.752-.208-10.128-.471-20.192-1.213-62.212-3.737-89.132,9.121A3.65,3.65,0,0,1,839.669,830.4Z" transform="translate(-836.028 -812.613)" fill="#f8f8f8"/>
        </g>
        <g id="Сгруппировать_107" data-name="Сгруппировать 107" transform="translate(1036.947 955.712)">
            <path id="Контур_85" data-name="Контур 85" d="M896.281,870.791c-2.3,0-5.794-.211-10.21-.478-4.831-.3-10.845-.66-17.51-.88a3.639,3.639,0,0,1-3.514-3.757,3.561,3.561,0,0,1,3.757-3.514c6.764.223,12.832.589,17.706.885,4.295.262,7.686.468,9.771.468a3.638,3.638,0,0,1,0,7.275Z" transform="translate(-865.045 -862.156)" fill="#f8f8f8"/>
        </g>
        <g id="Сгруппировать_108" data-name="Сгруппировать 108" transform="translate(963.721 958.589)">
            <path id="Контур_86" data-name="Контур 86" d="M838.491,878.1a3.639,3.639,0,0,1-1.572-6.921,101.168,101.168,0,0,1,25.139-7.773,3.638,3.638,0,1,1,1.317,7.156,93.686,93.686,0,0,0-23.315,7.181A3.628,3.628,0,0,1,838.491,878.1Z" transform="translate(-834.851 -863.343)" fill="#f8f8f8"/>
        </g>
        <g id="Сгруппировать_109" data-name="Сгруппировать 109" transform="translate(967.429 1003.848)">
            <path id="Контур_87" data-name="Контур 87" d="M840.02,898.292a3.639,3.639,0,0,1-1.082-7.113c31.246-9.73,49.781-9.322,59.729-9.092.9.019,1.717.039,2.461.046a3.638,3.638,0,0,1-.039,7.276h-.036c-.771-.01-1.618-.027-2.546-.049-9.538-.211-27.291-.609-57.406,8.767A3.659,3.659,0,0,1,840.02,898.292Z" transform="translate(-836.38 -882.005)" fill="#f8f8f8"/>
        </g>
        <g id="Сгруппировать_121" data-name="Сгруппировать 121" transform="translate(977.689 812.17)">
            <g id="Сгруппировать_117" data-name="Сгруппировать 117" transform="translate(0 9.26)">
                <g id="Сгруппировать_110" data-name="Сгруппировать 110" transform="translate(20.291 0.001)">
                    <path id="Контур_88" data-name="Контур 88" d="M852.614,927.97a3.639,3.639,0,0,1-2.493-6.286l120.9-113.907a3.637,3.637,0,1,1,4.986,5.3L855.11,926.981A3.631,3.631,0,0,1,852.614,927.97Z" transform="translate(-848.977 -806.787)" fill="#f8f8f8"/>
                </g>
                <g id="Сгруппировать_111" data-name="Сгруппировать 111" transform="translate(34.228 14.819)">
                    <path id="Контур_89" data-name="Контур 89" d="M858.364,934.075a3.638,3.638,0,0,1-2.5-6.286l120.88-113.9a3.639,3.639,0,1,1,4.993,5.294L860.857,933.086A3.628,3.628,0,0,1,858.364,934.075Z" transform="translate(-854.724 -812.897)" fill="#f8f8f8"/>
                </g>
                <g id="Сгруппировать_112" data-name="Сгруппировать 112" transform="translate(48.778 30.274)">
                    <path id="Контур_90" data-name="Контур 90" d="M865.817,940.448h-1.448a3.642,3.642,0,0,1-2.3-6.466L982.739,820.26a3.637,3.637,0,0,1,4.989,5.294Z" transform="translate(-860.724 -819.27)" fill="#f8f8f8"/>
                </g>
                <g id="Сгруппировать_113" data-name="Сгруппировать 113" transform="translate(141.194)">
                    <path id="Контур_91" data-name="Контур 91" d="M930.923,844.337a3.623,3.623,0,0,1-2.648-1.147l-28.457-30.271a3.638,3.638,0,1,1,5.3-4.984l28.454,30.271a3.639,3.639,0,0,1-2.651,6.131Z" transform="translate(-898.831 -806.786)" fill="#f8f8f8"/>
                </g>
                <g id="Сгруппировать_114" data-name="Сгруппировать 114" transform="translate(20.291 113.909)">
                    <path id="Контур_92" data-name="Контур 92" d="M881.11,891.3a3.627,3.627,0,0,1-2.646-1.142l-28.5-30.271a3.638,3.638,0,1,1,5.3-4.986l28.493,30.268a3.637,3.637,0,0,1-2.648,6.131Z" transform="translate(-848.978 -853.756)" fill="#f8f8f8"/>
                </g>
                <g id="Сгруппировать_115" data-name="Сгруппировать 115" transform="translate(0 113.913)">
                    <path id="Контур_93" data-name="Контур 93" d="M844.247,908.111a3.638,3.638,0,0,1-3.339-5.078l20.282-47.072a3.637,3.637,0,0,1,6.684,2.871l-20.282,47.082A3.642,3.642,0,0,1,844.247,908.111Z" transform="translate(-840.611 -853.758)" fill="#f8f8f8"/>
                </g>
                <g id="Сгруппировать_116" data-name="Сгруппировать 116" transform="translate(0 144.185)">
                    <path id="Контур_94" data-name="Контур 94" d="M844.249,890.322a3.638,3.638,0,0,1-1.186-7.077l48.785-16.809a3.637,3.637,0,0,1,2.369,6.878l-48.78,16.809A3.649,3.649,0,0,1,844.249,890.322Z" transform="translate(-840.611 -866.24)" fill="#f8f8f8"/>
                </g>
            </g>
            <g id="Сгруппировать_118" data-name="Сгруппировать 118" transform="translate(169.648 30.463)">
                <path id="Контур_95" data-name="Контур 95" d="M914.2,831.879a3.639,3.639,0,0,1-2.474-6.305L921.5,816.5a3.638,3.638,0,1,1,4.95,5.333l-9.776,9.073A3.629,3.629,0,0,1,914.2,831.879Z" transform="translate(-910.564 -815.529)" fill="#f8f8f8"/>
            </g>
            <g id="Сгруппировать_119" data-name="Сгруппировать 119" transform="translate(151.164)">
                <path id="Контур_96" data-name="Контур 96" d="M934.843,840.706a3.632,3.632,0,0,1-2.668-1.162l-28.26-30.465a3.638,3.638,0,0,1,5.333-4.95l28.26,30.465a3.637,3.637,0,0,1-2.665,6.112Z" transform="translate(-902.942 -802.968)" fill="#f8f8f8"/>
            </g>
            <g id="Сгруппировать_120" data-name="Сгруппировать 120" transform="translate(141.184)">
                <path id="Контур_97" data-name="Контур 97" d="M902.465,819.505a3.636,3.636,0,0,1-2.474-6.3l9.979-9.264a3.638,3.638,0,0,1,4.95,5.333l-9.979,9.264A3.643,3.643,0,0,1,902.465,819.505Z" transform="translate(-898.827 -802.968)" fill="#f8f8f8"/>
            </g>
        </g>
        <text id="A" transform="translate(793.02 852.698)" fill="#f8f8f8" font-size="57" font-family="Helvetica"><tspan x="0" y="0">A</tspan></text>
        <text id="Я" transform="translate(1051.962 1016.855)" fill="#f8f8f8" font-size="57" font-family="Helvetica"><tspan x="0" y="0">Я</tspan></text>
    </g>
</svg>