<svg xmlns="http://www.w3.org/2000/svg" width="413.021" height="320.422" viewBox="0 0 413.021 320.422">
    <g id="Сгруппировать_78" data-name="Сгруппировать 78" transform="translate(-734.856 -388.6)">
        <g id="Сгруппировать_73" data-name="Сгруппировать 73" transform="translate(734.856 543.291)">
            <g id="Сгруппировать_57" data-name="Сгруппировать 57" transform="translate(0 159.163)">
                <path id="Контур_43" data-name="Контур 43" d="M1144.592,532.168H738.141a3.284,3.284,0,1,1,0-6.568h406.451a3.284,3.284,0,1,1,0,6.568Z" transform="translate(-734.856 -525.6)" fill="#f8f8f8"/>
            </g>
            <g id="Сгруппировать_58" data-name="Сгруппировать 58" transform="translate(187.482 127.514)">
                <path id="Контур_44" data-name="Контур 44" d="M848.238,550h-.027a3.282,3.282,0,0,1-3.258-3.31c.016-2.036.078-4.075.142-6.08.257-8.323.5-16.185-2.946-19.741-1.643-1.693-4.25-2.518-7.972-2.518-3.466,0-5.934.8-7.544,2.442-3.629,3.7-3.466,12-3.3,20.795.03,1.691.064,3.4.071,5.113a3.284,3.284,0,0,1-3.271,3.3h-.014a3.283,3.283,0,0,1-3.283-3.271c-.009-1.677-.041-3.356-.073-5.015-.2-10.208-.383-19.853,5.177-25.523,2.868-2.923,6.985-4.408,12.234-4.408,5.594,0,9.745,1.478,12.689,4.513,5.384,5.553,5.1,14.763,4.795,24.517-.059,1.954-.124,3.943-.14,5.929A3.28,3.28,0,0,1,848.238,550Z" transform="translate(-816.693 -511.785)" fill="#f8f8f8"/>
            </g>
            <g id="Сгруппировать_65" data-name="Сгруппировать 65" transform="translate(9.053 0)">
                <g id="Сгруппировать_59" data-name="Сгруппировать 59" transform="translate(12.725)">
                    <path id="Контур_45" data-name="Контур 45" d="M927.549,590.208a3.287,3.287,0,0,1-3.058-2.085c-31.963-81.4-149.949-122.337-177.215-125.45a3.286,3.286,0,0,1,.747-6.529c14.284,1.633,51.458,12.49,90.4,34.684,32.279,18.394,74.473,49.788,92.184,94.892a3.288,3.288,0,0,1-1.856,4.261A3.322,3.322,0,0,1,927.549,590.208Z" transform="translate(-744.362 -456.124)" fill="#f8f8f8"/>
                </g>
                <g id="Сгруппировать_60" data-name="Сгруппировать 60" transform="translate(5.606 44.851)">
                    <path id="Контур_46" data-name="Контур 46" d="M920.34,568.827a3.276,3.276,0,0,1-2.667-1.365c-41.843-58.024-142.121-84.8-173.174-85.19a3.285,3.285,0,0,1-3.244-3.324,3.243,3.243,0,0,1,3.324-3.246c31.965.4,135.239,28.034,178.423,87.916a3.288,3.288,0,0,1-2.662,5.209Z" transform="translate(-741.255 -475.702)" fill="#f8f8f8"/>
                </g>
                <g id="Сгруппировать_61" data-name="Сгруппировать 61" transform="translate(0.003 95.51)">
                    <path id="Контур_47" data-name="Контур 47" d="M920.414,557.218a3.241,3.241,0,0,1-1.723-.493c-51.5-31.8-120.816-52.338-176.6-52.338a3.286,3.286,0,0,1,0-6.573c56.915,0,127.588,20.93,180.049,53.323a3.285,3.285,0,0,1-1.727,6.08Z" transform="translate(-738.809 -497.815)" fill="#f8f8f8"/>
                </g>
                <g id="Сгруппировать_62" data-name="Сгруппировать 62" transform="translate(12.725)">
                    <path id="Контур_48" data-name="Контур 48" d="M750.854,507.974a3.283,3.283,0,0,1-3.271-3.051l-3.212-45.28a3.285,3.285,0,1,1,6.554-.465l3.212,45.28a3.282,3.282,0,0,1-3.045,3.507C751.014,507.972,750.932,507.974,750.854,507.974Z" transform="translate(-744.362 -456.124)" fill="#f8f8f8"/>
                </g>
                <g id="Сгруппировать_63" data-name="Сгруппировать 63" transform="translate(5.604 44.853)">
                    <path id="Контур_49" data-name="Контур 49" d="M749.07,532.932a3.289,3.289,0,0,1-3.269-2.994l-4.534-50.659a3.286,3.286,0,0,1,6.545-.586l4.536,50.661a3.287,3.287,0,0,1-2.98,3.565C749.267,532.928,749.169,532.932,749.07,532.932Z" transform="translate(-741.254 -475.703)" fill="#f8f8f8"/>
                </g>
                <g id="Сгруппировать_64" data-name="Сгруппировать 64" transform="translate(0 95.51)">
                    <path id="Контур_50" data-name="Контур 50" d="M746.208,568.036a3.285,3.285,0,0,1-3.276-3.072l-4.117-63.651a3.285,3.285,0,1,1,6.557-.424l4.117,63.648a3.285,3.285,0,0,1-3.065,3.491C746.352,568.033,746.276,568.036,746.208,568.036Z" transform="translate(-738.808 -497.815)" fill="#f8f8f8"/>
                </g>
            </g>
            <g id="Сгруппировать_72" data-name="Сгруппировать 72" transform="translate(205.901)">
                <g id="Сгруппировать_66" data-name="Сгруппировать 66" transform="translate(0 0)">
                    <path id="Контур_51" data-name="Контур 51" d="M828.02,590.208a3.285,3.285,0,0,1-3.058-4.488c17.716-45.106,59.912-76.5,92.188-94.892,38.945-22.194,76.12-33.051,90.4-34.684a3.286,3.286,0,1,1,.747,6.529c-27.266,3.113-145.25,44.05-177.222,125.45A3.287,3.287,0,0,1,828.02,590.208Z" transform="translate(-824.733 -456.124)" fill="#f8f8f8"/>
                </g>
                <g id="Сгруппировать_67" data-name="Сгруппировать 67" transform="translate(8.297 44.851)">
                    <path id="Контур_52" data-name="Контур 52" d="M831.638,571.762a3.288,3.288,0,0,1-2.662-5.209c42.533-58.982,146.4-90.415,181.36-90.851a3.285,3.285,0,0,1,.08,6.57c-32.964.408-135.491,31.8-176.111,88.124A3.279,3.279,0,0,1,831.638,571.762Z" transform="translate(-828.355 -475.702)" fill="#f8f8f8"/>
                </g>
                <g id="Сгруппировать_68" data-name="Сгруппировать 68" transform="translate(10.115 95.51)">
                    <path id="Контур_53" data-name="Контур 53" d="M832.437,558.8a3.287,3.287,0,0,1-1.73-6.082c53.177-32.838,127.219-54.9,184.249-54.9a3.286,3.286,0,0,1,0,6.573c-55.912,0-128.568,21.67-180.794,53.919A3.275,3.275,0,0,1,832.437,558.8Z" transform="translate(-829.149 -497.815)" fill="#f8f8f8"/>
                </g>
                <g id="Сгруппировать_69" data-name="Сгруппировать 69" transform="translate(176.697)">
                    <path id="Контур_54" data-name="Контур 54" d="M905.154,507.974c-.078,0-.158,0-.238-.009a3.282,3.282,0,0,1-3.044-3.507l3.212-45.28a3.285,3.285,0,0,1,6.554.465l-3.212,45.28A3.283,3.283,0,0,1,905.154,507.974Z" transform="translate(-901.863 -456.124)" fill="#f8f8f8"/>
                </g>
                <g id="Сгруппировать_70" data-name="Сгруппировать 70" transform="translate(182.495 44.85)">
                    <path id="Контур_55" data-name="Контур 55" d="M907.686,532.934c-.1,0-.2,0-.3-.014a3.287,3.287,0,0,1-2.98-3.565l4.536-50.661a3.286,3.286,0,0,1,6.545.586l-4.534,50.659A3.29,3.29,0,0,1,907.686,532.934Z" transform="translate(-904.394 -475.701)" fill="#f8f8f8"/>
                </g>
                <g id="Сгруппировать_71" data-name="Сгруппировать 71" transform="translate(188.518 95.51)">
                    <path id="Контур_56" data-name="Контур 56" d="M910.311,568.036c-.069,0-.144,0-.215-.007a3.286,3.286,0,0,1-3.065-3.491l4.119-63.648a3.284,3.284,0,1,1,6.554.424l-4.117,63.651A3.284,3.284,0,0,1,910.311,568.036Z" transform="translate(-907.023 -497.815)" fill="#f8f8f8"/>
                </g>
            </g>
        </g>
        <g id="Сгруппировать_77" data-name="Сгруппировать 77" transform="translate(822.733 388.6)">
            <g id="Сгруппировать_74" data-name="Сгруппировать 74">
                <path id="Контур_57" data-name="Контур 57" d="M879.078,532.382c-58.375,0-105.863-32.233-105.863-71.852,0-39.662,47.488-71.93,105.863-71.93s105.865,32.267,105.865,71.93a49.66,49.66,0,0,1-2.066,14.133,53.024,53.024,0,0,1-5.636,12.79,3.285,3.285,0,0,1-5.624-3.4,46.377,46.377,0,0,0,4.951-11.23,43.1,43.1,0,0,0,1.807-12.3c0-36.041-44.547-65.36-99.3-65.36s-99.295,29.319-99.295,65.36c0,35.995,44.542,65.282,99.295,65.282a144.537,144.537,0,0,0,31.074-3.3,3.284,3.284,0,1,1,1.413,6.415A150.868,150.868,0,0,1,879.078,532.382Z" transform="translate(-773.215 -388.6)" fill="#f8f8f8"/>
            </g>
            <g id="Сгруппировать_75" data-name="Сгруппировать 75" transform="translate(151.373 93.867)">
                <path id="Контур_58" data-name="Контур 58" d="M842.574,534.523a3.285,3.285,0,0,1-2.967-4.692l46.556-98.376a3.285,3.285,0,1,1,5.938,2.811l-46.558,98.376A3.281,3.281,0,0,1,842.574,534.523Z" transform="translate(-839.29 -429.574)" fill="#f8f8f8"/>
            </g>
            <g id="Сгруппировать_76" data-name="Сгруппировать 76" transform="translate(134.358 133.83)">
                <path id="Контур_59" data-name="Контур 59" d="M852.162,512a3.286,3.286,0,0,1-3.152-2.369L832,451.222a3.286,3.286,0,1,1,6.309-1.837L855.319,507.8A3.292,3.292,0,0,1,852.162,512Z" transform="translate(-831.863 -447.018)" fill="#f8f8f8"/>
            </g>
        </g>
    </g>
</svg>