<svg xmlns="http://www.w3.org/2000/svg" width="35.376" height="35.376" viewBox="0 0 35.376 35.376">
    <g id="Layer_44" data-name="Layer 44" transform="translate(-10.5 -10.5)">
        <path id="Контур_98" data-name="Контур 98" d="M49.22,10.5H40.269a1.234,1.234,0,0,0,0,2.468h5.973L36.715,22.5a1.234,1.234,0,1,0,1.744,1.744l9.527-9.527v5.973a1.234,1.234,0,0,0,2.468,0V11.734A1.234,1.234,0,0,0,49.22,10.5Z" transform="translate(-4.578 0)" fill="#fff"/>
        <path id="Контур_99" data-name="Контур 99" d="M14.712,12.968h5.973a1.234,1.234,0,0,0,0-2.468H11.734A1.234,1.234,0,0,0,10.5,11.734v8.951a1.234,1.234,0,1,0,2.468,0V14.712L22.5,24.239A1.234,1.234,0,1,0,24.239,22.5Z" transform="translate(0 0)" fill="#fff"/>
        <path id="Контур_100" data-name="Контур 100" d="M22.5,36.729l-9.527,9.527V40.283a1.234,1.234,0,1,0-2.468,0v8.951a1.234,1.234,0,0,0,1.234,1.234h8.951a1.234,1.234,0,1,0,0-2.468H14.712l9.527-9.527A1.234,1.234,0,0,0,22.5,36.729Z" transform="translate(0 -4.592)" fill="#fff"/>
        <path id="Контур_101" data-name="Контур 101" d="M49.234,39.049A1.234,1.234,0,0,0,48,40.283v5.973l-9.527-9.527a1.234,1.234,0,0,0-1.744,1.744L46.256,48H40.283a1.234,1.234,0,0,0,0,2.468h8.951a1.234,1.234,0,0,0,1.234-1.234V40.283A1.234,1.234,0,0,0,49.234,39.049Z" transform="translate(-4.592 -4.592)" fill="#fff"/>
    </g>
</svg>